<svg fill="none" height="100%" width="100%" viewBox="0 0 1080 1080" xmlns:xlink="http://www.w3.org/1999/xlink" xmlns="http://www.w3.org/2000/svg"><defs><clipPath id="i0"><rect height="1080" width="1080" y="0" x="0" /></clipPath><g id="i1"><g transform="matrix(1.95,0,0,1.95,-2463,-477.901)" id="i2"><g id="i3" transform="matrix(1,0,0,1,1401.956,403.387)"><path fill="#0f3e4a" d="M24.853,-14.349C30.169,-5.142,23.351,8.745,9.625,16.67C-4.101,24.594,-19.537,23.555,-24.853,14.348C-30.169,5.142,-23.35,-8.744,-9.625,-16.67C4.1,-24.594,19.538,-23.556,24.853,-14.349Z" /></g><g id="i4" transform="matrix(1,0,0,1,1385.021,378.454)"><path fill="#0f3e4a" d="M2.387,24.412C0.299,21.954,-4.946,12.685,-21.083,-16.072C-21.083,-16.072,-10.034,-24.412,-10.034,-24.412C3.347,-10.991,20.153,5.976,20.997,6.472C21.084,6.522,2.387,24.412,2.387,24.412Z" /></g><g id="i5" transform="matrix(1,0,0,1,1652.257,405.956)"><path fill="#0f3e4a" d="M-24.853,-14.349C-30.168,-5.142,-23.351,8.745,-9.624,16.67C4.102,24.594,19.537,23.555,24.852,14.348C30.168,5.141,23.35,-8.745,9.625,-16.669C-4.101,-24.594,-19.538,-23.556,-24.853,-14.349Z" /></g><g id="i6" transform="matrix(1,0,0,1,1669.193,381.023)"><path fill="#0f3e4a" d="M-2.385,24.412C-0.299,21.954,4.946,12.685,21.083,-16.072C21.083,-16.072,10.034,-24.412,10.034,-24.412C-3.348,-10.991,-20.154,5.976,-20.997,6.471C-21.084,6.523,-2.385,24.412,-2.385,24.412Z" /></g><g id="i7" transform="matrix(1,0,0,1,1525.215,522.419)"><path fill="#0f3e4a" d="M-212.232,-0.001C-212.232,52.64,-117.214,95.314,-0.001,95.314C117.213,95.314,212.233,52.64,212.233,-0.001C212.233,-52.641,117.213,-95.314,-0.001,-95.314C-117.214,-95.314,-212.232,-52.641,-212.232,-0.001Z" /></g><g id="i8" transform="matrix(1,0,0,1,1712.187,527.958)"><path fill="#a2bfdc" d="M0.484,39.191C-3.281,42.366,-7.433,45.436,-11.946,48.385C-0.952,16.758,3.812,-18.358,2.66,-48.385C6.128,-45.296,9.232,-42.11,11.947,-38.839C11.85,-14.084,8.095,13.255,0.484,39.191Z" /></g><g id="i9" transform="matrix(1,0,0,1,1339.159,528.526)"><path fill="#a2bfdc" d="M-12.808,-39.478C-10.079,-42.756,-6.959,-45.948,-3.475,-49.044C-5.256,-18.734,0.819,16.989,12.936,49.044C8.237,46.073,3.907,42.977,-0.024,39.768C-8.512,13.334,-12.936,-14.471,-12.808,-39.478Z" /></g><g id="i10" transform="matrix(1,0,0,1,1520.858,522.709)"><path fill="#a2bfdc" d="M-53.327,134.722C-14.018,129.267,25.863,128.429,65.497,132.281C156.65,141.137,189.087,4.609,176.089,-64.106C169.462,-99.145,130.411,-124.254,97.44,-132.052C37.684,-146.185,-26.153,-147.077,-86.217,-134.469C-118.446,-127.605,-150.324,-105.74,-162.874,-74.318C-189.087,-8.671,-142.367,147.076,-53.327,134.722Z" /></g><g id="i11" transform="matrix(1,0,0,1,1505.845,533.795)"><path fill="#a3b6bf" d="M-147.861,-85.404C-141.658,-100.936,-130.731,-114.132,-117.376,-124.336C-121.86,-118.36,-125.602,-111.855,-128.388,-104.877C-154.6,-39.23,-107.882,116.518,-18.842,104.164C20.468,98.71,60.35,97.871,99.983,101.723C121.607,103.825,139.926,97.742,155.119,86.326C137.039,109.635,112.359,124.29,80.51,121.196C40.876,117.344,0.994,118.182,-38.314,123.637C-127.354,135.991,-174.074,-19.757,-147.861,-85.404Z" /></g><g id="i12" transform="matrix(1,0,0,1,1516.632,529.337)"><path fill="#c7d8ea" d="M89.57,-86.731C35.714,-90.917,-18.39,-90.917,-72.247,-86.731C-158.612,-80.018,-188.347,62.729,-32.139,84.128C17.413,90.917,76.916,87.365,120.344,60.457C188.347,18.323,164.104,-80.938,89.57,-86.731Z" /></g><g id="i13" transform="matrix(1,0,0,1,1527.632,527.958)"><path fill="#0f3e4a" d="M0.127,86.134C-14.021,86.134,-28.47,85.137,-42.818,83.172C-124.863,71.932,-152.915,27.604,-151.81,-10.133C-150.68,-48.717,-121.124,-80.043,-83.063,-83.002C-56.323,-85.08,-29.162,-86.134,-2.34,-86.134C-2.34,-86.134,-2.337,-86.134,-2.337,-86.134C24.484,-86.134,51.646,-85.08,78.388,-83.002C110.956,-80.471,137.012,-58.224,144.769,-26.327C152.915,7.164,138.522,40.984,108.102,59.831C73.019,81.57,30.023,86.134,0.131,86.134C0.131,86.134,0.127,86.134,0.127,86.134Z" /></g></g><g id="i14"><g transform="translate(649.766,322.291)"><animateTransform repeatCount="indefinite" type="translate" attributeName="transform" dur="2s" begin="0s" calcMode="spline" values="649.766 322.291; 641.766 319.291; 649.766 322.291; 641.766 319.291; 649.766 322.291" keyTimes="0; 0.25; 0.5; 0.75; 1" keySplines="0.333 0 0.667 1; 0.333 0 0.667 1; 0.333 0 0.667 1; 0.333 0 0.667 1" fill="freeze" /><g transform="scale(1.95,1.95) translate(-1596.29,-410.354)"><g id="i13" transform="matrix(1,0,0,1,1596.29,410.355)"><path fill="#cedeed" d="M-56.011,-2.359C-55.091,5.815,-30.352,9.742,-1.22,13.51C27.943,17.015,52.889,19.285,55.788,11.587C58.73,4.096,35.496,-11.674,2.427,-15.736C-30.624,-19.921,-57.022,-10.343,-56.011,-2.359Z" /></g></g></g></g><g id="i15"><g transform="translate(829.745,217.357)"><animateTransform repeatCount="indefinite" type="translate" attributeName="transform" dur="2s" begin="0s" calcMode="spline" values="829.745 217.357; 829.745 217.357; 826.745 220.857; 829.745 217.357; 829.745 217.357; 826.745 220.857; 829.745 217.357; 829.745 217.357" keyTimes="0; 0.233333; 0.316667; 0.391667; 0.633334; 0.716667; 0.791667; 1" keySplines="0 0 1 1; 0.333 0 0.667 1; 0.333 0 0.667 1; 0 0 1 1; 0.333 0 0.667 1; 0.333 0 0.667 1; 0 0 1 1" fill="freeze" /><g transform="scale(1.95,1.95) translate(-1688.587,-356.542)"><g id="i10" transform="matrix(1,0,0,1,1688.925,356.542)"><path fill="#c7d8ea" d="M-20.153,-0.001C-20.153,11.13,-11.131,20.153,0,20.153C11.13,20.153,20.153,11.13,20.153,-0.001C20.153,-11.13,11.13,-20.153,0,-20.153C-11.131,-20.153,-20.153,-11.13,-20.153,-0.001Z" /></g><g id="i11" transform="matrix(1,0,0,1,1681.181,356.543)"><path fill="#a3b6bf" d="M7.744,-20.154C9.35,-20.154,10.913,-19.966,12.412,-19.61C3.531,-17.505,-3.073,-9.524,-3.073,-0.001C-3.073,9.523,3.531,17.503,12.412,19.609C10.913,19.964,9.35,20.153,7.744,20.153C-3.387,20.153,-12.409,11.13,-12.409,-0.001C-12.409,-11.131,-3.387,-20.154,7.744,-20.154Z" /></g><g id="i12" transform="matrix(1,0,0,1,1677.261,356.821)"><path fill="#0f3e4a" d="M16.332,19.33C-4.528,23.411,-16.331,-2.893,-0.496,-15.674C4.062,-19.435,10.368,-21.053,16.332,-19.889C4.196,-23.411,-9.072,-14.229,-9.166,-0.28C-9.065,13.522,4.088,22.878,16.332,19.33Z" /></g><g id="i13" transform="matrix(1,0,0,1,1697.242,354.952)"><path fill="#ffffff" d="M-8.318,0.001C-8.318,4.596,-4.593,8.321,0.001,8.321C4.596,8.321,8.321,4.596,8.321,0.001C8.321,-4.594,4.596,-8.318,0.001,-8.318C-4.593,-8.318,-8.318,-4.594,-8.318,0.001Z" /></g></g></g></g><g id="i16"><g transform="translate(199.971,212.348)"><animateTransform repeatCount="indefinite" type="translate" attributeName="transform" dur="2s" begin="0s" calcMode="spline" values="199.971 212.348; 199.971 212.348; 202.971 217.848; 199.971 212.348; 199.971 212.348; 202.971 217.848; 199.971 212.348; 199.971 212.348" keyTimes="0; 0.233333; 0.316667; 0.391667; 0.633334; 0.716667; 0.791667; 1" keySplines="0 0 1 1; 0.333 0 0.667 1; 0.333 0 0.667 1; 0 0 1 1; 0.333 0 0.667 1; 0.333 0 0.667 1; 0 0 1 1" fill="freeze" /><g transform="scale(1.95,1.95) translate(-1365.626,-353.973)"><g id="i10" transform="matrix(1,0,0,1,1365.289,353.973)"><path fill="#c7d8ea" d="M20.154,0C20.154,11.13,11.131,20.153,0,20.153C-11.131,20.153,-20.153,11.13,-20.153,0C-20.153,-11.13,-11.131,-20.153,0,-20.153C11.131,-20.153,20.154,-11.13,20.154,0Z" /></g><g id="i11" transform="matrix(1,0,0,1,1373.031,353.973)"><path fill="#a3b6bf" d="M-7.741,-20.153C-9.348,-20.153,-10.912,-19.964,-12.41,-19.61C-3.53,-17.504,3.077,-9.524,3.077,0C3.077,9.523,-3.53,17.504,-12.41,19.61C-10.912,19.965,-9.348,20.153,-7.741,20.153C3.39,20.153,12.411,11.131,12.411,0C12.411,-11.13,3.39,-20.153,-7.741,-20.153Z" /></g><g id="i12" transform="matrix(1,0,0,1,1376.953,354.253)"><path fill="#0f3e4a" d="M-16.332,19.33C4.529,23.41,16.331,-2.892,0.496,-15.674C-4.061,-19.434,-10.368,-21.054,-16.332,-19.89C-4.196,-23.411,9.07,-14.228,9.164,-0.279C9.064,13.522,-4.088,22.878,-16.332,19.33Z" /></g><g id="i13" transform="matrix(1,0,0,1,1356.969,352.383)"><path fill="#ffffff" d="M8.32,0.002C8.32,4.597,4.595,8.321,0,8.321C-4.594,8.321,-8.319,4.597,-8.319,0.002C-8.319,-4.593,-4.594,-8.317,0,-8.317C4.595,-8.317,8.32,-4.593,8.32,0.002Z" /></g></g></g></g></g></defs><g id="i17"><g transform="translate(540,540)"><animateTransform repeatCount="indefinite" type="translate" attributeName="transform" dur="2s" begin="0s" calcMode="spline" values="540 540; 540 581; 540 540; 540 581; 540 540" keyTimes="0; 0.25; 0.5; 0.75; 1" keySplines="0.333 0 0.667 1; 0.333 0 0.667 1; 0.333 0 0.667 1; 0.333 0 0.667 1" fill="freeze" /><g transform="scale(1,1) translate(-540,-540)"><g clip-path="url(#i0)"><g transform="matrix(1.95,0,0,1.95,-2463,-477.901)"><g transform="matrix(1,0,0,1,1401.956,403.387)"><path fill="#0f3e4a" d="M24.853,-14.349C30.169,-5.142,23.351,8.745,9.625,16.67C-4.101,24.594,-19.537,23.555,-24.853,14.348C-30.169,5.142,-23.35,-8.744,-9.625,-16.67C4.1,-24.594,19.538,-23.556,24.853,-14.349Z" /></g><g transform="matrix(1,0,0,1,1385.021,378.454)"><path fill="#0f3e4a" d="M2.387,24.412C0.299,21.954,-4.946,12.685,-21.083,-16.072C-21.083,-16.072,-10.034,-24.412,-10.034,-24.412C3.347,-10.991,20.153,5.976,20.997,6.472C21.084,6.522,2.387,24.412,2.387,24.412Z" /></g><g transform="matrix(1,0,0,1,1652.257,405.956)"><path fill="#0f3e4a" d="M-24.853,-14.349C-30.168,-5.142,-23.351,8.745,-9.624,16.67C4.102,24.594,19.537,23.555,24.852,14.348C30.168,5.141,23.35,-8.745,9.625,-16.669C-4.101,-24.594,-19.538,-23.556,-24.853,-14.349Z" /></g><g transform="matrix(1,0,0,1,1669.193,381.023)"><path fill="#0f3e4a" d="M-2.385,24.412C-0.299,21.954,4.946,12.685,21.083,-16.072C21.083,-16.072,10.034,-24.412,10.034,-24.412C-3.348,-10.991,-20.154,5.976,-20.997,6.471C-21.084,6.523,-2.385,24.412,-2.385,24.412Z" /></g><g transform="matrix(1,0,0,1,1525.215,522.419)"><path fill="#0f3e4a" d="M-212.232,-0.001C-212.232,52.64,-117.214,95.314,-0.001,95.314C117.213,95.314,212.233,52.64,212.233,-0.001C212.233,-52.641,117.213,-95.314,-0.001,-95.314C-117.214,-95.314,-212.232,-52.641,-212.232,-0.001Z" /></g><g transform="matrix(1,0,0,1,1712.187,527.958)"><path fill="#a2bfdc" d="M0.484,39.191C-3.281,42.366,-7.433,45.436,-11.946,48.385C-0.952,16.758,3.812,-18.358,2.66,-48.385C6.128,-45.296,9.232,-42.11,11.947,-38.839C11.85,-14.084,8.095,13.255,0.484,39.191Z" /></g><g transform="matrix(1,0,0,1,1339.159,528.526)"><path fill="#a2bfdc" d="M-12.808,-39.478C-10.079,-42.756,-6.959,-45.948,-3.475,-49.044C-5.256,-18.734,0.819,16.989,12.936,49.044C8.237,46.073,3.907,42.977,-0.024,39.768C-8.512,13.334,-12.936,-14.471,-12.808,-39.478Z" /></g><g transform="matrix(1,0,0,1,1520.858,522.709)"><path fill="#a2bfdc" d="M-53.327,134.722C-14.018,129.267,25.863,128.429,65.497,132.281C156.65,141.137,189.087,4.609,176.089,-64.106C169.462,-99.145,130.411,-124.254,97.44,-132.052C37.684,-146.185,-26.153,-147.077,-86.217,-134.469C-118.446,-127.605,-150.324,-105.74,-162.874,-74.318C-189.087,-8.671,-142.367,147.076,-53.327,134.722Z" /></g><g transform="matrix(1,0,0,1,1505.845,533.795)"><path fill="#a3b6bf" d="M-147.861,-85.404C-141.658,-100.936,-130.731,-114.132,-117.376,-124.336C-121.86,-118.36,-125.602,-111.855,-128.388,-104.877C-154.6,-39.23,-107.882,116.518,-18.842,104.164C20.468,98.71,60.35,97.871,99.983,101.723C121.607,103.825,139.926,97.742,155.119,86.326C137.039,109.635,112.359,124.29,80.51,121.196C40.876,117.344,0.994,118.182,-38.314,123.637C-127.354,135.991,-174.074,-19.757,-147.861,-85.404Z" /></g><g transform="matrix(1,0,0,1,1516.632,529.337)"><path fill="#c7d8ea" d="M89.57,-86.731C35.714,-90.917,-18.39,-90.917,-72.247,-86.731C-158.612,-80.018,-188.347,62.729,-32.139,84.128C17.413,90.917,76.916,87.365,120.344,60.457C188.347,18.323,164.104,-80.938,89.57,-86.731Z" /></g><g transform="matrix(1,0,0,1,1527.632,527.958)"><path fill="#0f3e4a" d="M0.127,86.134C-14.021,86.134,-28.47,85.137,-42.818,83.172C-124.863,71.932,-152.915,27.604,-151.81,-10.133C-150.68,-48.717,-121.124,-80.043,-83.063,-83.002C-56.323,-85.08,-29.162,-86.134,-2.34,-86.134C-2.34,-86.134,-2.337,-86.134,-2.337,-86.134C24.484,-86.134,51.646,-85.08,78.388,-83.002C110.956,-80.471,137.012,-58.224,144.769,-26.327C152.915,7.164,138.522,40.984,108.102,59.831C73.019,81.57,30.023,86.134,0.131,86.134C0.131,86.134,0.127,86.134,0.127,86.134Z" /></g></g><g><g transform="translate(649.766,322.291)"><animateTransform repeatCount="indefinite" type="translate" attributeName="transform" dur="2s" begin="0s" calcMode="spline" values="649.766 322.291; 641.766 319.291; 649.766 322.291; 641.766 319.291; 649.766 322.291" keyTimes="0; 0.25; 0.5; 0.75; 1" keySplines="0.333 0 0.667 1; 0.333 0 0.667 1; 0.333 0 0.667 1; 0.333 0 0.667 1" fill="freeze" /><g transform="scale(1.95,1.95) translate(-1596.29,-410.354)"><g transform="matrix(1,0,0,1,1596.29,410.355)"><path fill="#cedeed" d="M-56.011,-2.359C-55.091,5.815,-30.352,9.742,-1.22,13.51C27.943,17.015,52.889,19.285,55.788,11.587C58.73,4.096,35.496,-11.674,2.427,-15.736C-30.624,-19.921,-57.022,-10.343,-56.011,-2.359Z" /></g></g></g></g><g><g transform="translate(829.745,217.357)"><animateTransform repeatCount="indefinite" type="translate" attributeName="transform" dur="2s" begin="0s" calcMode="spline" values="829.745 217.357; 829.745 217.357; 826.745 220.857; 829.745 217.357; 829.745 217.357; 826.745 220.857; 829.745 217.357; 829.745 217.357" keyTimes="0; 0.233333; 0.316667; 0.391667; 0.633334; 0.716667; 0.791667; 1" keySplines="0 0 1 1; 0.333 0 0.667 1; 0.333 0 0.667 1; 0 0 1 1; 0.333 0 0.667 1; 0.333 0 0.667 1; 0 0 1 1" fill="freeze" /><g transform="scale(1.95,1.95) translate(-1688.587,-356.542)"><g transform="matrix(1,0,0,1,1688.925,356.542)"><path fill="#c7d8ea" d="M-20.153,-0.001C-20.153,11.13,-11.131,20.153,0,20.153C11.13,20.153,20.153,11.13,20.153,-0.001C20.153,-11.13,11.13,-20.153,0,-20.153C-11.131,-20.153,-20.153,-11.13,-20.153,-0.001Z" /></g><g transform="matrix(1,0,0,1,1681.181,356.543)"><path fill="#a3b6bf" d="M7.744,-20.154C9.35,-20.154,10.913,-19.966,12.412,-19.61C3.531,-17.505,-3.073,-9.524,-3.073,-0.001C-3.073,9.523,3.531,17.503,12.412,19.609C10.913,19.964,9.35,20.153,7.744,20.153C-3.387,20.153,-12.409,11.13,-12.409,-0.001C-12.409,-11.131,-3.387,-20.154,7.744,-20.154Z" /></g><g transform="matrix(1,0,0,1,1677.261,356.821)"><path fill="#0f3e4a" d="M16.332,19.33C-4.528,23.411,-16.331,-2.893,-0.496,-15.674C4.062,-19.435,10.368,-21.053,16.332,-19.889C4.196,-23.411,-9.072,-14.229,-9.166,-0.28C-9.065,13.522,4.088,22.878,16.332,19.33Z" /></g><g transform="matrix(1,0,0,1,1697.242,354.952)"><path fill="#ffffff" d="M-8.318,0.001C-8.318,4.596,-4.593,8.321,0.001,8.321C4.596,8.321,8.321,4.596,8.321,0.001C8.321,-4.594,4.596,-8.318,0.001,-8.318C-4.593,-8.318,-8.318,-4.594,-8.318,0.001Z" /></g></g></g></g><g><g transform="translate(199.971,212.348)"><animateTransform repeatCount="indefinite" type="translate" attributeName="transform" dur="2s" begin="0s" calcMode="spline" values="199.971 212.348; 199.971 212.348; 202.971 217.848; 199.971 212.348; 199.971 212.348; 202.971 217.848; 199.971 212.348; 199.971 212.348" keyTimes="0; 0.233333; 0.316667; 0.391667; 0.633334; 0.716667; 0.791667; 1" keySplines="0 0 1 1; 0.333 0 0.667 1; 0.333 0 0.667 1; 0 0 1 1; 0.333 0 0.667 1; 0.333 0 0.667 1; 0 0 1 1" fill="freeze" /><g transform="scale(1.95,1.95) translate(-1365.626,-353.973)"><g transform="matrix(1,0,0,1,1365.289,353.973)"><path fill="#c7d8ea" d="M20.154,0C20.154,11.13,11.131,20.153,0,20.153C-11.131,20.153,-20.153,11.13,-20.153,0C-20.153,-11.13,-11.131,-20.153,0,-20.153C11.131,-20.153,20.154,-11.13,20.154,0Z" /></g><g transform="matrix(1,0,0,1,1373.031,353.973)"><path fill="#a3b6bf" d="M-7.741,-20.153C-9.348,-20.153,-10.912,-19.964,-12.41,-19.61C-3.53,-17.504,3.077,-9.524,3.077,0C3.077,9.523,-3.53,17.504,-12.41,19.61C-10.912,19.965,-9.348,20.153,-7.741,20.153C3.39,20.153,12.411,11.131,12.411,0C12.411,-11.13,3.39,-20.153,-7.741,-20.153Z" /></g><g transform="matrix(1,0,0,1,1376.953,354.253)"><path fill="#0f3e4a" d="M-16.332,19.33C4.529,23.41,16.331,-2.892,0.496,-15.674C-4.061,-19.434,-10.368,-21.054,-16.332,-19.89C-4.196,-23.411,9.07,-14.228,9.164,-0.279C9.064,13.522,-4.088,22.878,-16.332,19.33Z" /></g><g transform="matrix(1,0,0,1,1356.969,352.383)"><path fill="#ffffff" d="M8.32,0.002C8.32,4.597,4.595,8.321,0,8.321C-4.594,8.321,-8.319,4.597,-8.319,0.002C-8.319,-4.593,-4.594,-8.317,0,-8.317C4.595,-8.317,8.32,-4.593,8.32,0.002Z" /></g></g></g></g></g></g></g></g><g id="i17"><g transform="translate(540,540)"><animateTransform repeatCount="indefinite" type="translate" attributeName="transform" dur="2s" begin="0s" calcMode="spline" values="540 540; 540 581; 540 540; 540 581; 540 540" keyTimes="0; 0.25; 0.5; 0.75; 1" keySplines="0.333 0 0.667 1; 0.333 0 0.667 1; 0.333 0 0.667 1; 0.333 0 0.667 1" fill="freeze" /><g transform="scale(1,1) translate(-540,-540)"><g id="i18"><g transform="translate(509,541.925)"><g transform="rotate(0)"><animateTransform repeatCount="indefinite" type="rotate" attributeName="transform" dur="2s" begin="0s" calcMode="spline" values="0; 720" keyTimes="0; 1" keySplines="0 0 1 1" fill="freeze" /><g transform="scale(2.58,2.58) translate(-478.582,-1471.561)"><g id="i19" transform="matrix(1,0,0,1,480.094,1425.987)"><path fill="#00ff00" d="M8.485,0C8.485,4.685,4.686,8.484,0.001,8.484C-4.685,8.484,-8.484,4.685,-8.484,0C-8.484,-4.686,-4.685,-8.483,0.001,-8.483C4.686,-8.483,8.485,-4.686,8.485,0Z" /></g><g id="i3" transform="matrix(1,0,0,1,460.026,1430.411)"><path fill="#00ff00" d="M7.979,0C7.979,4.407,4.406,7.979,0,7.979C-4.407,7.979,-7.978,4.407,-7.978,0C-7.978,-4.406,-4.407,-7.978,0,-7.978C4.406,-7.978,7.979,-4.406,7.979,0Z" /></g><g id="i4" transform="matrix(1,0,0,1,444.168,1442.359)"><path fill="#00ff00" d="M7.473,-0.001C7.473,4.127,4.127,7.473,0,7.473C-4.127,7.473,-7.473,4.127,-7.473,-0.001C-7.473,-4.127,-4.127,-7.473,0,-7.473C4.127,-7.473,7.473,-4.127,7.473,-0.001Z" /></g><g id="i5" transform="matrix(1,0,0,1,434.508,1459.841)"><path fill="#00ff00" d="M6.968,0C6.968,3.848,3.848,6.967,0.001,6.967C-3.847,6.967,-6.967,3.848,-6.967,0C-6.967,-3.849,-3.847,-6.967,0.001,-6.967C3.848,-6.967,6.968,-3.849,6.968,0Z" /></g><g id="i6" transform="matrix(1,0,0,1,433.009,1480.623)"><path fill="#00ff00" d="M6.461,0C6.461,3.568,3.568,6.462,-0.001,6.462C-3.57,6.462,-6.462,3.568,-6.462,0C-6.462,-3.567,-3.57,-6.461,-0.001,-6.461C3.568,-6.461,6.461,-3.567,6.461,0Z" /></g><g id="i7" transform="matrix(1,0,0,1,440.161,1499.507)"><path fill="#00ff00" d="M5.956,0C5.956,3.289,3.289,5.956,-0.001,5.956C-3.29,5.956,-5.956,3.289,-5.956,0C-5.956,-3.289,-3.29,-5.956,-0.001,-5.956C3.289,-5.956,5.956,-3.289,5.956,0Z" /></g><g id="i8" transform="matrix(1,0,0,1,454.174,1513.521)"><path fill="#00ff00" d="M5.45,0C5.45,3.01,3.01,5.45,-0.001,5.45C-3.01,5.45,-5.45,3.01,-5.45,0C-5.45,-3.01,-3.01,-5.45,-0.001,-5.45C3.01,-5.45,5.45,-3.01,5.45,0Z" /></g><g id="i9" transform="matrix(1,0,0,1,473.059,1520.673)"><path fill="#00ff00" d="M4.945,0C4.945,2.729,2.731,4.945,0.001,4.945C-2.73,4.945,-4.944,2.729,-4.944,0C-4.944,-2.731,-2.73,-4.944,0.001,-4.944C2.731,-4.944,4.945,-2.731,4.945,0Z" /></g><g id="i10" transform="matrix(1,0,0,1,493.841,1519.173)"><path fill="#00ff00" d="M4.439,0C4.439,2.451,2.452,4.438,0,4.438C-2.452,4.438,-4.439,2.451,-4.439,0C-4.439,-2.452,-2.452,-4.438,0,-4.438C2.452,-4.438,4.439,-2.452,4.439,0Z" /></g><g id="i11" transform="matrix(1,0,0,1,511.324,1509.514)"><path fill="#00ff00" d="M3.933,0.001C3.933,2.172,2.172,3.932,-0.001,3.932C-2.172,3.932,-3.933,2.172,-3.933,0.001C-3.933,-2.172,-2.172,-3.932,-0.001,-3.932C2.172,-3.932,3.933,-2.172,3.933,0.001Z" /></g><g id="i12" transform="matrix(1,0,0,1,523.27,1493.656)"><path fill="#00ff00" d="M3.428,-0.001C3.428,1.893,1.894,3.428,0.001,3.428C-1.892,3.428,-3.427,1.893,-3.427,-0.001C-3.427,-1.894,-1.892,-3.428,0.001,-3.428C1.894,-3.428,3.428,-1.894,3.428,-0.001Z" /></g><g id="i13" transform="matrix(1,0,0,1,527.695,1473.588)"><path fill="#00ff00" d="M2.922,0.001C2.922,1.614,1.613,2.922,-0.001,2.922C-1.614,2.922,-2.922,1.614,-2.922,0.001C-2.922,-1.614,-1.614,-2.922,-0.001,-2.922C1.613,-2.922,2.922,-1.614,2.922,0.001Z" /></g></g></g></g></g></g></g></g></svg>